<?xml version="1.0" encoding="utf-8"?>
<!-- Generator: Adobe Illustrator 24.2.1, SVG Export Plug-In . SVG Version: 6.00 Build 0)  -->
<svg version="1.1" id="Layer_1" xmlns="http://www.w3.org/2000/svg" xmlns:xlink="http://www.w3.org/1999/xlink" x="0px" y="0px"
	 viewBox="0 0 595.3 420.9" style="enable-background:new 0 0 595.3 420.9;" xml:space="preserve">
<style type="text/css">
	.st0{fill:#558AFF;}
	.st1{fill:#0F1E2D;}
	.st2{fill:#ECF2FF;}
	.st3{fill:none;stroke:#ECF2FF;stroke-width:0.75;stroke-miterlimit:10;}
	.st4{fill:#93A0AD;}
	.st5{fill:#93A0AD;stroke:#93A0AD;stroke-miterlimit:10;}
	.st6{fill:#9FA7B1;}
	.st7{fill:none;stroke:#93A0AD;stroke-width:0.5;stroke-miterlimit:10;}
	.st8{fill:#CCDEFF;}
	.st9{fill:#1D1D1B;}
	.st10{fill:#00193D;}
	.st11{fill:#FFFFFF;}
	.st12{fill:#58008C;}
	.st13{fill:#00CFFF;}
	.st14{fill:#558AFF;stroke:#2A0042;stroke-miterlimit:10;}
	.st15{fill:#FF4D4D;}
	.st16{clip-path:url(#SVGID_2_);}
	.st17{fill:#99B9FF;}
	.st18{fill:#BFD3FF;}
	.st19{fill:#3F4E64;}
	.st20{fill:#D4DCE8;}
	.st21{fill:#7EC580;}
	.st22{fill:#98D199;}
	.st23{fill:#CBE8CC;}
	.st24{fill:#E5F3E6;}
	.st25{fill:#FFD169;}
	.st26{fill:#FFE8B4;}
	.st27{fill:#FFF8E9;}
	.st28{fill:#FFA2A2;}
	.st29{fill:#FFC1C1;}
	.st30{fill:#FFEFEF;}
	.st31{fill:#FFC543;}
	.st32{fill:#FF6464;}
</style>
<g>
	<path class="st0" d="M147.4,209.1c-4.4-2.5-9.4-3.1-14-2.2c3.1-3.6,5-8.3,4.9-13.4c-0.2-11-9.3-19.7-20.3-19.4s-19.7,9.3-19.4,20.3
		c0.1,5.2,2.2,9.9,5.6,13.4c-4.9-1.2-10.2-0.5-14.9,2.2c-9.4,5.6-12.5,17.8-6.9,27.2c5.6,9.4,17.8,12.5,27.2,6.9
		c4.6-2.7,7.7-7,9-11.7c1.4,4.6,4.5,8.7,9,11.3c9.5,5.4,21.6,2.2,27.1-7.4C160.2,226.7,156.9,214.6,147.4,209.1z M89.3,232.6
		l5.6-9.9l23.1,0.1c-0.5,2.9-0.4,5.9,0.4,8.8c0.1,0.2,0.2,0.5,0.2,0.7L89.3,232.6z M120.3,216.5c-0.8,1.5-1.4,3-1.9,4.6
		c-0.5-1.4-1.1-2.8-1.9-4.2c-0.8-1.3-1.7-2.5-2.8-3.6c1.6,0.4,3.3,0.6,5.1,0.6c1.3,0,2.5-0.2,3.7-0.4
		C121.7,214.3,120.9,215.3,120.3,216.5z M112.8,212.3c-2.4-2.2-5.3-3.7-8.4-4.5l14.1-25.4l5.8,9.7L112.8,212.3z M136,232.4l-11-19.7
		c3-1,5.7-2.8,7.8-5c0.1-0.1,0.1-0.1,0.2-0.2l14.4,24.9L136,232.4z"/>
	<g>
		<path class="st0" d="M236.7,196.2v48h-10v-48H236.7z"/>
		<path class="st0" d="M255,226v18.2h-10v-48h24c5.7,0,10.1,1.2,13.2,3.7c3.1,2.5,4.7,6,4.7,10.6c0,3.4-1,6.3-2.9,8.7
			c-1.9,2.4-4.5,4-7.7,4.8l13,20.2h-11.3L266.8,226H255z M276.7,210.9c0-2.3-0.7-4-2.2-5.2c-1.5-1.2-3.7-1.7-6.6-1.7H255v14.2h13.1
			c2.8,0,4.9-0.6,6.4-1.9C276,215,276.7,213.2,276.7,210.9z"/>
		<path class="st0" d="M378.7,196.2l-17.6,48h-10.2l-17.7-48h10.5l9.9,30.8c0.3,1,0.7,2.3,1.1,3.8c0.4,1.5,0.9,3.3,1.4,5.3
			c0.7-2.8,1.3-4.9,1.6-6.2c0.3-1.3,0.6-2.2,0.8-2.9l9.8-30.8H378.7z"/>
		<path class="st0" d="M432.5,215.9v28.3h-8.9v-48h11.5l21.2,37.2c-0.4-3.4-0.6-6.6-0.6-9.4v-27.9h8.9v48h-11.8l-20.9-36.9
			c0.2,1.8,0.4,3.4,0.5,4.9C432.5,213.5,432.5,214.8,432.5,215.9z"/>
		<path class="st0" d="M221.3,244.2l-17.4-48H192l-17.5,48h10l2.9-8.8c3.4,1,6.8,1.6,10.4,1.6c3.6,0,7.2-0.5,10.6-1.6l2.9,8.8H221.3
			z M197.8,228.4c-2.7,0-5.2-0.4-7.7-1.1l7.8-23.7l7.8,23.6C203.2,228,200.5,228.4,197.8,228.4z"/>
		<path class="st0" d="M339.2,244.2l-17.4-48H310l-17.5,48h10l2.9-8.8c3.4,1,6.8,1.6,10.4,1.6c3.6,0,7.2-0.5,10.6-1.6l2.9,8.8H339.2
			z M315.8,228.4c-2.7,0-5.2-0.4-7.7-1.1l7.8-23.7l7.8,23.6C321.1,228,318.5,228.4,315.8,228.4z"/>
		<path class="st0" d="M419.3,244.2l-17.4-48H390l-17.5,48h10l2.9-8.8c3.4,1,6.8,1.6,10.4,1.6c3.6,0,7.2-0.5,10.6-1.6l2.9,8.8H419.3
			z M395.9,228.4c-2.7,0-5.2-0.4-7.7-1.1l7.8-23.7l7.8,23.6C401.2,228,398.6,228.4,395.9,228.4z"/>
		<path class="st0" d="M515.7,244.2l-17.4-48h-11.8l-17.5,48h10l2.9-8.8c3.4,1,6.8,1.6,10.4,1.6c3.6,0,7.2-0.5,10.6-1.6l2.9,8.8
			H515.7z M492.2,228.4c-2.7,0-5.2-0.4-7.7-1.1l7.8-23.7l7.8,23.6C497.6,228,494.9,228.4,492.2,228.4z"/>
	</g>
</g>
</svg>
