<?xml version="1.0" encoding="utf-8"?>
<!-- Generator: Adobe Illustrator 23.0.6, SVG Export Plug-In . SVG Version: 6.00 Build 0)  -->
<svg version="1.1" id="Layer_1" xmlns="http://www.w3.org/2000/svg" xmlns:xlink="http://www.w3.org/1999/xlink" x="0px" y="0px"
	 viewBox="0 0 107.4 34" style="enable-background:new 0 0 107.4 34;" xml:space="preserve">
<style type="text/css">
	.st0{fill:#185F4C;}
	.st1{fill:#FFFFFF;}
	.st2{fill:#313133;}
	.st3{opacity:0.6;fill:#313133;enable-background:new    ;}
	.st4{fill:#21876A;}
	.st5{fill:#28A380;}
	.st6{fill:#FDFEFF;}
</style>
<g id="Group_3" transform="translate(-165.933 -86.934)">
	<path id="Path_1" class="st0" d="M193.1,115.7c-0.3-0.7-0.4-1.5-0.4-2.3v-4.2c0-0.8,0.2-1.6,0.5-2.3c0-0.1,0.1-0.2,0.2-0.3v-16
		c0-2-1.6-3.6-3.6-3.6l0,0h-15.5l-8.2,8.2v22.2c0,2,1.6,3.6,3.6,3.6l0,0h20.1c2,0,3.6-1.6,3.6-3.6l0,0v-1.3
		C193.2,115.9,193.1,115.8,193.1,115.7z"/>
	<g id="Group_1" transform="translate(193.59 115.551)">
		<path id="Path_2" class="st1" d="M-7.1-9C-6.4-9-5.7-8.8-5-8.5c0.7,0.3,1.2,0.7,1.7,1.2c0.5,0.5,0.9,1.2,1.1,1.9
			c0.3,0.8,0.4,1.6,0.4,2.4c0,0.8-0.1,1.5-0.4,2.2c-0.2,0.7-0.6,1.3-1.1,1.8c-0.5,0.5-1,0.9-1.6,1.2c-0.7,0.3-1.4,0.4-2.1,0.4h-8.5
			v-3.4h7.5c0.4,0,0.7,0,1.1-0.1c0.3-0.1,0.6-0.2,0.9-0.4c0.2-0.2,0.4-0.4,0.6-0.7C-5-3-5.1-4.1-5.8-4.8C-6.3-5.2-7-5.4-7.6-5.4
			h-2.2c-0.9,0-1.7-0.1-2.5-0.3c-0.7-0.2-1.4-0.5-1.9-1c-0.5-0.5-1-1-1.2-1.7c-0.3-0.8-0.5-1.6-0.4-2.5c0-0.7,0.1-1.3,0.4-2
			c0.2-0.6,0.6-1.2,1-1.7c0.4-0.5,0.9-0.9,1.5-1.2c0.6-0.3,1.3-0.4,2-0.4h7.7v3.6h-6.3c-0.3,0-0.7,0-1,0.1c-0.3,0-0.6,0.1-0.8,0.2
			c-0.2,0.1-0.4,0.3-0.5,0.5c-0.1,0.3-0.2,0.6-0.2,1c0,0.4,0.2,0.9,0.5,1.2c0.3,0.3,0.8,0.5,1.3,0.5L-7.1-9z"/>
	</g>
	<path id="Path_3" class="st2" d="M193.6,109.1c0-0.7,0.1-1.3,0.4-1.9c0.2-0.6,0.6-1.1,1-1.6c0.4-0.4,0.9-0.8,1.4-1.1
		c0.5-0.3,1.1-0.4,1.6-0.4h3.1c0.7,0,1.3,0.1,1.9,0.5c0.5,0.3,1,0.7,1.4,1.1c0.4,0.5,0.7,1,0.9,1.6c0.2,0.5,0.3,1.1,0.3,1.7v3.5
		h-8.9v0.7c-0.1,0.5,0.1,1,0.5,1.4c0.4,0.3,0.9,0.4,1.4,0.4h6.4v3.1h-7.1c-0.6,0-1.2-0.1-1.7-0.4c-0.5-0.2-1-0.6-1.4-1
		c-0.4-0.4-0.7-0.9-1-1.5c-0.2-0.6-0.4-1.3-0.4-1.9L193.6,109.1z M196.8,110h5.7v-0.1c0-0.6-0.2-1.3-0.5-1.8
		c-0.3-0.5-0.9-0.7-1.5-0.7h-1.7c-0.3,0-0.6,0.1-0.8,0.2c-0.2,0.1-0.4,0.3-0.6,0.5c-0.2,0.2-0.3,0.5-0.4,0.8
		c-0.1,0.3-0.2,0.6-0.1,0.9L196.8,110z"/>
	<path id="Path_4" class="st2" d="M211.1,107c0.3-0.4,0.6-0.8,1-1.1c0.4-0.3,0.9-0.6,1.4-0.8c0.5-0.2,1.1-0.4,1.7-0.5
		c0.6-0.1,1.2-0.2,1.7-0.2h0.4v3.4H217c-0.7,0-1.4,0.1-2,0.4c-0.7,0.3-1.3,0.6-1.9,1c-0.5,0.4-1,0.9-1.4,1.4c-0.3,0.5-0.5,1-0.5,1.6
		v5.8h-3.4v-14h3.4V107z"/>
	<path id="Path_5" class="st2" d="M218.7,104.2h2.6v-4.7h3.2v4.7h2.6v3.1h-2.6v10.8h-3.2v-10.8h-2.6V104.2z"/>
	<path id="Path_6" class="st2" d="M231.9,102.7h-3.2v-3.2h3.2V102.7z M231.9,118.1h-3.2v-13.9h3.2V118.1z"/>
	<path id="Path_7" class="st2" d="M242.2,102.4h-1c-0.6,0-1.1,0.2-1.5,0.6c-0.4,0.4-0.6,0.9-0.6,1.5v0.6h3.1v3.1h-3.1v9.9h-2.9v-9.9
		h-2.5v-3.1h2.5v-0.5c0-0.7,0.1-1.4,0.3-2.1c0.2-0.6,0.5-1.1,1-1.6c0.4-0.4,1-0.8,1.6-1c0.7-0.3,1.4-0.4,2.1-0.4h1L242.2,102.4z"/>
	<path id="Path_8" class="st2" d="M247.5,102.7h-3.2v-3.2h3.2V102.7z M247.5,118.1h-3.2v-13.9h3.2V118.1z"/>
	<path id="Path_9" class="st2" d="M249.6,109.1c0-0.7,0.1-1.3,0.4-1.9c0.2-0.6,0.6-1.1,1-1.6c0.4-0.4,0.9-0.8,1.4-1.1
		c0.5-0.3,1.1-0.4,1.6-0.4h3.1c0.7,0,1.3,0.1,1.9,0.5c0.5,0.3,1,0.7,1.4,1.1c0.4,0.5,0.7,1,0.9,1.6c0.2,0.5,0.3,1.1,0.3,1.7v3.5
		h-8.9v0.7c-0.1,0.5,0.1,1,0.5,1.4c0.4,0.3,0.9,0.4,1.4,0.4h6.4v3.1h-7.1c-0.6,0-1.2-0.1-1.7-0.4c-0.5-0.2-1-0.6-1.4-1
		c-0.4-0.4-0.7-0.9-1-1.5c-0.2-0.6-0.4-1.3-0.4-1.9L249.6,109.1z M252.8,110h5.7v-0.1c0-0.6-0.2-1.3-0.5-1.8
		c-0.3-0.5-0.9-0.7-1.5-0.7h-1.7c-0.3,0-0.6,0.1-0.8,0.2c-0.2,0.1-0.4,0.3-0.6,0.5c-0.2,0.2-0.3,0.5-0.4,0.8
		c-0.1,0.3-0.2,0.6-0.2,0.9L252.8,110z"/>
	<path id="Path_10" class="st2" d="M267.1,107c0.3-0.4,0.6-0.8,1-1.1c0.4-0.3,0.9-0.6,1.4-0.8c0.5-0.2,1.1-0.4,1.7-0.5
		c0.6-0.1,1.2-0.2,1.7-0.2h0.4v3.4H273c-0.7,0-1.4,0.1-2,0.4c-0.7,0.3-1.3,0.6-1.9,1c-0.5,0.4-1,0.9-1.4,1.4c-0.3,0.5-0.5,1-0.5,1.6
		v5.8h-3.4v-14h3.4L267.1,107z"/>
	<path id="Path_11" class="st3" d="M174.2,91.8c0.2-0.8,0.3-4.8,0-4.7c-0.2,0.1-1.5,1.9-2.3,2.6c-1.8,1.6-4.8,4.7-5.6,5.5
		c-0.2,0.1,0.4,0.1,0.6,0.1c2,0.7,4.2,0.3,5.9-0.9C173.9,93.7,173.9,93,174.2,91.8z"/>
	<path id="Path_12" class="st4" d="M170.6,95.2c2,0,3.6-1.6,3.6-3.6c0,0,0,0,0,0c0.1-1.5,0.1-3.1,0-4.6c0,0,0,0,0-0.1l-8.2,8.2
		c0,0,0,0,0.1,0C167.5,94.7,169.1,94.7,170.6,95.2z"/>
	<g id="Group_2" transform="translate(185.988 107.11)">
		<path id="Path_13" class="st1" d="M-7.8-12c0-2.2-1.8-4.1-4.1-4.1c-2.2,0-4.1,1.8-4.1,4.1c0,1.4,0.7,2.6,1.8,3.4v5l2.3-1.8
			l2.3,1.8v-5C-8.5-9.4-7.8-10.6-7.8-12z"/>
	</g>
	<path id="Path_14" class="st5" d="M176.8,95.1c0,1.5-1.2,2.6-2.6,2.6s-2.6-1.2-2.6-2.6s1.2-2.6,2.6-2.6S176.8,93.7,176.8,95.1
		C176.8,95.1,176.8,95.1,176.8,95.1z"/>
	<path id="Path_15" class="st6" d="M174.1,92.6l0.6,1.7h1.8l-1.5,1.1l0.6,1.7l-1.5-1.1l-1.5,1.1l0.6-1.7l-1.5-1.1h1.8L174.1,92.6z"
		/>
</g>
</svg>
